<?xml version="1.0" standalone="yes"?>
<svg xmlns="http://www.w3.org/2000/svg" width="512" height="512">
<path style="fill:#ffffff; stroke:none;" d="M0 0L0 512L155 512L155 511C66.1333 507.184 15.8796 402.107 48.4275 326C70.4033 274.614 118.776 249.201 172 245L172 61C172 38.5324 168.648 7.7374 197 1L178 0L138 0L0 0z"/>
<path style="fill:#030303; stroke:none;" d="M172 245C136.054 246.544 102.081 258.258 76.1698 284.17C14.6332 345.706 29.4753 455.331 107 496.511C161.518 525.47 227.745 513.167 269.961 469C278.244 460.333 285.271 449.718 290.63 439C293.055 434.149 294.771 424.102 299.418 421.028C306.409 416.404 325.678 420 334 420L427 420C442.48 420 458.933 420.156 468.779 405.996C475.251 396.689 475 384.868 475 374L475 325L475 153L475 105C475 95.7509 475.865 85.7121 472.12 77C468.15 67.7668 459.142 61.5604 452 54.9105C436.687 40.6524 421.518 26.204 406 12.1698C388.779 -3.4043 369.843 0 348 0L231 0C212.332 0 189.341 -4.2193 177.549 14.0008C166.248 31.4604 172 62.0287 172 82L172 245z"/>
<path style="fill:#ffffff; stroke:none;" d="M388 0L388 1C402.861 5.29092 414.847 21.7391 426 31.8302C440.158 44.6397 464.46 60.1829 472.12 78C480.12 96.6096 475 125.051 475 145L475 293L475 366C475 378.449 476.513 393.034 469.451 404C458.161 421.535 438.315 420 420 420L334 420C324.912 420 307.585 416.62 299.418 420.603C295.804 422.367 294.332 429.559 292.85 433C288.881 442.214 283.51 450.953 277.522 459C257.522 485.876 221.632 510.285 187 511L187 512L512 512L512 0L388 0z"/>
<path style="fill:#876631; stroke:none;" d="M201.667 20.3333L202.333 20.6667L201.667 20.3333z"/>
<path style="fill:#f9c45b; stroke:none;" d="M303 399L409 399C419.466 399 440.243 402.945 448.895 396.347C455.498 391.312 454 382.305 454 375L454 322L454 98L410 98C399.124 98 388.601 98.2429 380.468 89.6991C366.098 74.6038 373 39.3496 373 20L248 20C235.044 20 210.339 15.2747 199.043 22.0895C193.138 25.652 193.002 31.8598 193 38L193 74L193 196L193 231C193 235.205 191.76 241.827 193.603 245.697C195.64 249.972 206.801 250.614 211 252.001C225.025 256.634 238.192 263.206 250 272.131C277.618 293.006 297.809 324.416 302.715 359C304.636 372.546 303.279 385.476 303 399z"/>
<path style="fill:#876631; stroke:none;" d="M373 20L373 77L374 77L374 38L373 20M199 21L200 22L199 21M197 22L198 23L197 22M196 23L197 24L196 23M195 24L196 25L195 24M194 26L195 27L194 26M193.333 27.6667L193.667 28.3333L193.333 27.6667M393 29L393 74L394 74L394 31L397 33L393 29M192 31L192 247L193 247L193 95L193 51L192 31z"/>
<path style="fill:#f9c45b; stroke:none;" d="M394 31L394 63L395.603 75.3966L409 77L444 77L420 53.9105L394 31z"/>
<path style="fill:#876631; stroke:none;" d="M402 37L403 38L402 37M403 38L404 39L403 38M404 39L405 40L404 39M405 40L406 41L405 40M406 41L407 42L406 41M407 42L408 43L407 42M408 43L409 44L408 43M409 44L410 45L409 44M415 49L416 50L415 49M416 50L417 51L416 50M417 51L418 52L417 51M418 52L419 53L418 52M419 53L420 54L419 53M420 54L421 55L420 54M421 55L422 56L421 55M422 56L423 57L422 56M428 61L429 62L428 61M429 62L430 63L429 62M430 63L431 64L430 63M431 64L432 65L431 64M432 65L433 66L432 65M433 66L434 67L433 66M434 67L435 68L434 67M435 68L436 69L435 68M441 73L442 74L441 73M442 74L443 75L442 74M394 75L395 76L394 75M443 75L444 76L443 75M395 76L396 77L395 76M396 77L396 78L446 78L431 77L396 77M374.333 79.6667L374.667 80.3333L374.333 79.6667M375 82L376 83L375 82M376 84L377 85L376 84M377 86L378 87L377 86M378 87L379 88L378 87M380 90L381 91L380 90M384 93L385 94L384 93M386 94L387 95L386 94M388 95L389 96L388 95M390.667 96.3333L391.333 96.6667L390.667 96.3333M394 97L394 98L454 98L435 97L394 97M249 124L249 125L398 125C386.306 120.093 365.73 124 353 124L249 124M245 125L246 126L245 125z"/>
<path style="fill:#030303; stroke:none;" d="M246.015 125.653C236.283 128.798 238.048 141.352 247.001 144.057C258.287 147.468 273.272 145 285 145L364 145C374.347 145 395.183 148.927 403.775 142.272C409.322 137.977 408.347 128.861 401.906 126.009C396.082 123.431 387.253 125 381 125L288 125C275.506 125 257.92 121.806 246.015 125.653z"/>
<path style="fill:#876631; stroke:none;" d="M401 125L402 126L401 125M243 126L244 127L243 126M403 126L404 127L403 126M405 128L406 129L405 128M240 129L241 130L240 129M406 129L407 130L406 129M239 131L240 132L239 131M407.333 131.667L407.667 132.333L407.333 131.667M407 136L407 139L408 139L407 136M239.333 137.667L239.667 138.333L239.333 137.667M406 139L407 140L406 139M241 141L242 142L241 141M405 141L406 142L405 141M242 142L243 143L242 142M404 142L405 143L404 142M244 143L245 144L244 143M402 143L403 144L402 143M246 144L246 145L249 145L246 144M398 144L398 145L401 145L398 144M247 188L247 189L360 189L326 188L247 188M394 188L395 189L394 188z"/>
<path style="fill:#030303; stroke:none;" d="M395.005 188.746C383.383 193.098 389.318 210.725 400.995 206.927C412.895 203.057 406.324 184.507 395.005 188.746z"/>
<path style="fill:#876631; stroke:none;" d="M401 188L402 189L401 188M244 189L245 190L244 189z"/>
<path style="fill:#030303; stroke:none;" d="M245.043 189.742C236.972 193.014 237.932 204.985 246.015 207.486C254.129 209.997 265.534 208 274 208L334 208C342.009 208 356.995 210.855 363.775 205.991C370.241 201.352 367.675 190.647 359.996 189.228C334.807 184.574 304.653 189 279 189C269.325 189 254.048 186.092 245.043 189.742z"/>
<path style="fill:#876631; stroke:none;" d="M362 189L363 190L362 189M392 189L393 190L392 189M403 189L404 190L403 189M391 190L392 191L391 190M404 190L405 191L404 190M241 191L242 192L241 191M365 191L366 192L365 191M390 191L391 192L390 191M405 191L406 192L405 191M389 192L390 193L389 192M406 192L407 193L406 192M240 193L241 194L240 193M366 193L367 194L366 193M239.333 194.667L239.667 195.333L239.333 194.667M388.333 194.667L388.667 195.333L388.333 194.667M407.333 194.667L407.667 195.333L407.333 194.667M367.333 195.667L367.667 196.333L367.333 195.667M367.333 200.667L367.667 201.333L367.333 200.667M388 200L389 201L388 200M407.333 200.667L407.667 201.333L407.333 200.667M239.333 201.667L239.667 202.333L239.333 201.667M240 203L241 204L240 203M366 203L367 204L366 203M406 203L407 204L406 203M390 204L391 205L390 204M405 204L406 205L405 204M391 205L392 206L391 205M404 205L405 206L404 205M243 206L244 207L243 206M363 206L364 207L363 206M393 206L394 207L393 206M244 207L245 208L244 207M361.667 207.333L362.333 207.667L361.667 207.333M395.667 207.333L396.333 207.667L395.667 207.333M399.667 207.333L400.333 207.667L399.667 207.333M248 208L248 209L359 209L325 208L248 208M193 247L194 248L193 247M196.667 248.333L197.333 248.667L196.667 248.333M201.667 249.333L202.333 249.667L201.667 249.333M205.667 250.333L206.333 250.667L205.667 250.333M208.667 251.333L209.333 251.667L208.667 251.333M212 252L213 253L212 252M298.667 252.333L299.333 252.667L298.667 252.333z"/>
<path style="fill:#030303; stroke:none;" d="M300.004 252.558C290.554 255.071 289.506 267.831 299.015 271.146C306.312 273.689 316.347 272 324 272L377 272C384.367 272 396.505 274.287 402.945 270.142C412.152 264.217 406.058 253.207 397 252.174C376.535 249.842 354.605 252 334 252C323.467 252 310.207 249.844 300.004 252.558z"/>
<path style="fill:#876631; stroke:none;" d="M399 252L399 253L402 253L399 252M215 253L216 254L215 253M296 253L297 254L296 253M218 254L219 255L218 254M295 254L296 255L295 254M404 254L405 255L404 254M220 255L221 256L220 255M405 255L406 256L405 255M222.667 256.333L223.333 256.667L222.667 256.333M293 256L294 257L293 256M225 257L226 258L225 257M227 258L228 259L227 258M292 258L293 259L292 258M407 258L407 261L408 261L407 258M229 259L230 260L229 259M231 260L232 261L231 260M233 261L234 262L233 261M235 262L236 263L235 262M291 262L292 263L291 262M237 263L238 264L237 263M238 264L239 265L238 264M407.333 264.667L407.667 265.333L407.333 264.667M240 265L241 266L240 265M292 265L293 266L292 265M159.667 266.333L160.333 266.667L159.667 266.333z"/>
<path style="fill:#3cacd4; stroke:none;" d="M161 266.424C141.687 268.991 123.168 274.424 107 285.721C94.2424 294.636 83.2931 305.739 75.0656 319C25.2028 399.368 93.9199 503.25 187 490.711C202.998 488.556 218.399 482.661 232 474.047C313.728 422.284 292.819 288.48 196 268.801C184.618 266.487 172.604 264.882 161 266.424z"/>
<path style="fill:#876631; stroke:none;" d="M181.667 266.333L182.333 266.667L181.667 266.333M152 267L153 268L152 267M189 267L190 268L189 267M243 267L244 268L243 267M293 267L294 268L293 267M194 268L195 269L194 268M245 268L246 269L245 268M405 268L406 269L405 268M143 269L144 270L143 269M246 269L247 270L246 269M295 269L296 270L295 269M404 269L405 270L404 269M139 270L140 271L139 270M296 270L297 271L296 270M249 271L250 272L249 271M298.667 271.333L299.333 271.667L298.667 271.333M400.667 271.333L401.333 271.667L400.667 271.333M133 272L134 273L133 272M208 272L209 273L208 272M250 272L251 273L250 272M130 273L131 274L130 273M211 273L212 274L211 273M253 274L254 275L253 274M125 275L126 276L125 275M254 275L255 276L254 275M123 276L124 277L123 276M218 276L219 277L218 276M121 277L122 278L121 277M119 278L120 279L119 278M222 278L223 279L222 278M224 279L225 280L224 279M259 279L260 280L259 279M115 280L116 281L115 280M260 280L261 281L260 280M261 281L262 282L261 281M262 282L263 283L262 282M263 283L264 284L263 283M158 284L159 285L158 284z"/>
<path style="fill:#030303; stroke:none;" d="M159 284.425C112.881 290.703 80.7566 325.599 74.5764 371C72.4063 386.942 75.9788 405.489 82.7816 420C85.3001 425.372 88.2812 432.846 95 433.731C101.875 434.638 106.597 428.463 105.656 422C104.781 415.99 100.751 410.646 98.6952 405C94.8401 394.415 92.8403 382.204 94.5903 371C102.695 319.11 158.769 287.853 206 313.309C255.853 340.178 258.573 411.263 212 442.64C200.03 450.705 187.141 454.108 173 455.714C166.945 456.401 159.716 453.169 154.043 456.179C145.388 460.772 147.816 472.748 157.001 474.656C210.237 485.715 262.326 439.043 265.91 387C268.869 344.036 242.596 303.679 202 289.218C188.642 284.459 173.089 282.507 159 284.425z"/>
<path style="fill:#876631; stroke:none;" d="M181.667 284.333L182.333 284.667L181.667 284.333M264 284L265 285L264 284M107 285L108 286L107 285M151 285L152 286L151 285M187 285L188 286L187 285M265 285L266 286L265 285M147 286L148 287L147 286M192 286L193 287L192 286M266 286L267 287L266 286M143 287L144 288L143 287M196 287L197 288L196 287M267 287L268 288L267 287M103 288L104 289L103 288M140 288L141 289L140 288M238 288L239 289L238 288M268 288L269 289L268 288M137 289L138 290L137 289M202 289L203 290L202 289M269 289L270 290L269 289M270 290L271 291L270 290M99 291L100 292L99 291M132 291L133 292L132 291M242 291L243 292L242 291M271 291L272 292L271 291M273 294L274 295L273 294M274 295L275 296L274 295M122 296L123 297L122 296M275 296L276 297L275 296M219 297L220 298L219 297M117 299L118 300L117 299M277 299L278 300L277 299M278 300L279 301L278 300M225 301L226 302L225 301M280 303L281 304L280 303M160 304L161 305L160 304M178.667 304.333L179.333 304.667L178.667 304.333M229 304L230 305L229 304M154 305L155 306L154 305M185 305L186 306L185 305M150 306L151 307L150 306M189 306L190 307L189 306M282 306L283 307L282 306M83 307L84 308L83 307M258 307L259 308L258 307M195 308L196 309L195 308M141 309L142 310L141 309M284 309L285 310L284 309M200 310L201 311L200 310M80 311L81 312L80 311M261 311L262 312L261 311M285 311L286 312L285 311M238 312L239 313L238 312M239 313L240 314L239 313M131 314L132 315L131 314M208 314L209 315L208 314M287 314L288 315L287 314M77 315L78 316L77 315M328 315L328 316L398 316L376 315L328 315M288 316L289 317L288 316M324 316L325 317L324 316z"/>
<path style="fill:#030303; stroke:none;" d="M325.015 316.742C317.45 319.726 316.848 331.895 325.04 334.486C330.634 336.255 338.175 335 344 335L383 335C388.704 335 397.768 336.69 402.892 333.821C410.456 329.586 407.897 318.261 399.985 316.394C384.019 312.626 363.419 316 347 316C340.472 316 331.156 314.321 325.015 316.742z"/>
<path style="fill:#876631; stroke:none;" d="M401 316L402 317L401 316M213 317L214 318L213 317M403 317L404 318L403 317M125 318L126 319L125 318M289 318L290 319L289 318M321 318L322 319L321 318M95 319L96 320L95 319M320 319L321 320L320 319M405 319L406 320L405 319M245 320L246 321L245 320M290 320L291 321L290 320M406 320L407 321L406 320M121 321L122 322L121 321M319 321L320 322L319 321M219 322L220 323L219 322M291 322L292 323L291 322M407.333 322.667L407.667 323.333L407.333 322.667M92 323L93 324L92 323M248 324L249 325L248 324M292 324L293 325L292 324M318 324L318 328L319 328L318 324M71 325L72 326L71 325M140 325L141 326L140 325z"/>
<path style="fill:#030303; stroke:none;" d="M141.015 325.657C124.847 330.656 142.989 353.358 147.424 361C152.008 368.898 156.699 381.914 164.104 387.436C171.575 393.007 199.7 392.315 207.956 388.347C213.903 385.489 214.614 376.736 209.772 372.434C201.414 365.009 186.324 374.064 177.104 368.972C167.978 363.932 161.016 343.905 155.846 335C152.659 329.509 148.313 323.4 141.015 325.657z"/>
<path style="fill:#876631; stroke:none;" d="M147 325L148 326L147 325M270 325L271 326L270 325M138 326L139 327L138 326M149 326L150 327L149 326M70 327L71 328L70 327M250 327L251 328L250 327M271 327L272 328L271 327M293 327L294 328L293 327M407.333 327.667L407.667 328.333L407.333 327.667M151 328L152 329L151 328M69 329L70 330L69 329M88 329L89 330L88 329M135 329L136 330L135 329M272 329L273 330L272 329M294 329L295 330L294 329M112 330L113 331L112 330M227 330L228 331L227 330M406 330L407 331L406 330M68 331L69 332L68 331M111 331L112 332L111 331M134 331L135 332L134 331M273 331L274 332L273 331M295.333 331.667L295.667 332.333L295.333 331.667M320 331L321 332L320 331M405 332L406 333L405 332M67 333L68 334L67 333M322 333L323 334L322 333M85 334L86 335L85 334M296.333 334.667L296.667 335.333L296.333 334.667M402 334L403 335L402 334M108 335L109 336L108 335M326 335L326 336L400 336L377 335L326 335M84 336L85 337L84 336M156 336L157 337L156 336M134 337L135 338L134 337M297.333 337.667L297.667 338.333L297.333 337.667M65 338L66 339L65 338M83 338L84 339L83 338M106 338L107 339L106 338M233 338L234 339L233 338M276 338L277 339L276 338M82 340L83 341L82 340M298.333 340.667L298.667 341.333L298.333 340.667M64 341L65 342L64 341M104 341L105 342L104 341M235 341L236 342L235 341M277 341L278 342L277 341M81 342L82 343L81 342M258 342L259 343L258 342M137 343L138 344L137 343M160 343L161 344L160 343M299.333 343.667L299.667 344.333L299.333 343.667M278 344L279 345L278 344M80 345L81 346L80 345M62 347L63 348L62 347M101 347L102 348L101 347M260 347L261 348L260 347M279 347L280 348L279 347M163 348L164 349L163 348M300.333 348.667L300.667 349.333L300.333 348.667M100 349L101 350L100 349M239 349L240 350L239 349M141 350L142 351L141 350M261 350L262 351L261 350M61 351L62 352L61 351M280 351L281 352L280 351M301.333 352.667L301.667 353.333L301.333 352.667M77 354L78 355L77 354M98 354L99 355L98 354M60 355L61 356L60 355M144 355L145 356L144 355M167 355L168 356L167 355M281 355L282 356L281 355M97 357L98 358L97 357M263 357L264 358L263 357M302 357L302 361L303 361L302 357M76 358L77 359L76 358M170 360L171 361L170 360M243 360L244 361L243 360M59 361L60 362L59 361M96 361L97 362L96 361M282 361L283 362L282 361M148 362L149 363L148 362M171 362L172 363L171 362M264 362L265 363L264 362M75 363L76 364L75 363M244 364L245 365L244 364M95 365L96 366L95 365M303 365L303 371L304 371L303 365M58 367L58 370L59 370L58 367M151 367L152 368L151 367M174 367L175 368L174 367M283.333 368.667L283.667 369.333L283.333 368.667M152 369L153 370L152 369M265 369L266 370L265 369M74.3333 370.667L74.6667 371.333L74.3333 370.667M245.333 370.667L245.667 371.333L245.333 370.667M94 371L94 374L95 374L94 371M155 374L156 375L155 374M212 375L213 376L212 375M213.333 379.667L213.667 380.333L213.333 379.667M159 381L160 382L159 381M94 384L94 387L95 387L94 384M74.3333 386.667L74.6667 387.333L74.3333 386.667M245 386L245 389L246 389L245 386M58 387L58 390L59 390L58 387M283 387L283 390L284 390L283 387M303 388L303 393L304 393L303 388M168 389L169 390L168 389M204 389L205 390L204 389M265 390L266 391L265 390M453 390L454 391L453 390M452 392L453 393L452 392M95 393L96 394L95 393M244 394L245 395L244 394M451 394L452 395L451 394M75 395L76 396L75 395M450 395L451 396L450 395M59 396L60 397L59 396M264 396L265 397L264 396M282 396L283 397L282 396M449 396L450 397L449 396M302.333 397.667L302.667 398.333L302.333 397.667M447 397L448 398L447 397M96 398L97 399L96 398M445 398L446 399L445 398M76 400L77 401L76 400M263 401L264 402L263 401M60 402L61 403L60 402M98 404L99 405L98 404M77 405L78 406L77 405M262 405L263 406L262 405M61 406L62 407L61 406M280 406L281 407L280 406M99 407L100 408L99 407M78 408L79 409L78 408M62 410L63 411L62 410M239 410L240 411L239 410M238 412L239 413L238 412M63 413L64 414L63 413M259 414L260 415L259 414M64 416L65 417L64 416M277 416L278 417L277 416M257 419L258 420L257 419M105 420L106 421L105 420M275 421L276 422L275 421M230 425L231 426L230 425M105 427L106 428L105 427M104 429L105 430L104 429M70 430L71 431L70 430M251 430L252 431L251 430M225 431L226 432L225 431M71 432L72 433L71 432M224 432L225 433L224 432M249 433L250 434L249 433M221 435L222 436L221 435M74 437L75 438L74 437M246 437L247 438L246 437M267 437L268 438L267 437z"/>
<path style="fill:#030303; stroke:none;" d="M119.004 441.757C107.108 446.045 112.913 464.08 124.985 460.343C136.909 456.652 130.538 437.599 119.004 441.757z"/>
<path style="fill:#876631; stroke:none;" d="M124 441L125 442L124 441M243 441L244 442L243 441M212 442L213 443L212 442M115 443L116 444L115 443M128 443L129 444L128 443M263 443L264 444L263 443M114 444L115 445L114 444M129 444L130 445L129 444M209 444L210 445L209 444M113 445L114 446L113 445M112 447L113 448L112 447M131 448L132 449L131 448M197 450L198 451L197 450M84 451L85 452L84 451M194 451L195 452L194 451M191 452L192 453L191 452M256 452L257 453L256 452M131 453L132 454L131 453M188 453L189 454L188 453M112 454L113 455L112 454M165 455L165 456L168 456L165 455M172 455L172 456L175 456L172 455M113 456L114 457L113 456M227 456L228 457L227 456M116 459L117 460L116 459M223 459L224 460L223 459M118 460L119 461L118 460M149 460L150 461L149 460M218 462L219 463L218 462M216 463L217 464L216 463M97 464L98 465L97 464M244 464L245 465L244 464M98 465L99 466L98 465M243 465L244 466L243 465M148 467L149 468L148 467M102 468L103 469L102 468M149 469L150 470L149 469M204 469L205 470L204 469M201 470L202 471L201 470M106 471L107 472L106 471M198 471L199 472L198 471M109 473L110 474L109 473M232 473L233 474L232 473M155 474L156 475L155 474M185 474L186 475L185 474M164.667 475.333L165.333 475.667L164.667 475.333M177.667 475.333L178.333 475.667L177.667 475.333M229 475L230 476L229 475M128 483L129 484L128 483M213 483L214 484L213 483M136 486L137 487L136 486M205 486L206 487L205 486M198 488L199 489L198 488M193 489L194 490L193 489M154 490L155 491L154 490M188 490L189 491L188 490M162 491L162 492L165 492L162 491M179.667 491.333L180.333 491.667L179.667 491.333z"/>
</svg>
