<?xml version="1.0" encoding="iso-8859-1"?>
<!-- Generator: Adobe Illustrator 19.0.0, SVG Export Plug-In . SVG Version: 6.00 Build 0)  -->
<svg version="1.1" id="Layer_1" xmlns="http://www.w3.org/2000/svg" xmlns:xlink="http://www.w3.org/1999/xlink" x="0px" y="0px"
	 viewBox="0 0 512 512" style="enable-background:new 0 0 512 512;" xml:space="preserve">
<circle style="fill:#F2CF61;" cx="256" cy="256" r="256"/>
<polygon style="fill:#B38E59;" points="360,140 152,140 88,272 424,272 "/>
<polygon style="fill:#263740;" points="100.768,268 157.012,140 354.988,140 411.236,268 "/>
<path style="fill:#CCCCCC;" d="M368,240c0,8.8-7.2,16-16,16H160c-8.8,0-16-7.2-16-16V108c0-8.8,7.2-16,16-16h192c8.8,0,16,7.2,16,16
	V240z"/>
<path style="fill:#F5F5F5;" d="M368,244c0,8.8-7.2,16-16,16H160c-8.8,0-16-7.2-16-16V112c0-8.8,7.2-16,16-16h192c8.8,0,16,7.2,16,16
	V244z"/>
<g>
	<rect x="212" y="116" style="fill:#CCCCCC;" width="92" height="8"/>
	<rect x="164" y="140" style="fill:#CCCCCC;" width="184" height="8"/>
	<rect x="164" y="156" style="fill:#CCCCCC;" width="184" height="8"/>
	<rect x="164" y="172" style="fill:#CCCCCC;" width="184" height="8"/>
	<path style="fill:#CCCCCC;" d="M384,316c0,8.8-7.2,16-16,16H144c-8.8,0-16-7.2-16-16V184c0-8.8,7.2-16,16-16h224
		c8.8,0,16,7.2,16,16V316z"/>
</g>
<path style="fill:#F5F5F5;" d="M384,320c0,8.8-7.2,16-16,16H144c-8.8,0-16-7.2-16-16V188c0-8.8,7.2-16,16-16h224c8.8,0,16,7.2,16,16
	V320z"/>
<g>
	<rect x="196" y="192" style="fill:#CCCCCC;" width="120" height="8"/>
	<rect x="148" y="216" style="fill:#CCCCCC;" width="216" height="8"/>
	<rect x="148" y="232" style="fill:#CCCCCC;" width="216" height="8"/>
	<rect x="148" y="248" style="fill:#CCCCCC;" width="216" height="8"/>
</g>
<path style="fill:#B38E59;" d="M312,272v12c0,4.4-3.6,8-8,8H204c-4.4,0-8-3.6-8-8v-12H88v120h336V272H312z"/>
<path style="fill:#CCA266;" d="M312,280v12c0,4.4-3.6,8-8,8H204c-4.4,0-8-3.6-8-8v-12H88v120h336V280H312z"/>
<g>
</g>
<g>
</g>
<g>
</g>
<g>
</g>
<g>
</g>
<g>
</g>
<g>
</g>
<g>
</g>
<g>
</g>
<g>
</g>
<g>
</g>
<g>
</g>
<g>
</g>
<g>
</g>
<g>
</g>
</svg>
